<?xml version="1.0" encoding="UTF-8"?>
<svg version="1.1" xmlns="http://www.w3.org/2000/svg" width="1024" height="1024">
<path d="M0 0 C337.92 0 675.84 0 1024 0 C1024 337.92 1024 675.84 1024 1024 C686.08 1024 348.16 1024 0 1024 C0 686.08 0 348.16 0 0 Z " fill="#FBFBFB" transform="translate(0,0)"/>
<path d="M0 0 C1.25941406 0.18304688 2.51882813 0.36609375 3.81640625 0.5546875 C42.97984278 6.8550616 81.56775564 30.51999268 105.4375 62.125 C106.28380981 63.24249634 106.28380981 63.24249634 107.1472168 64.38256836 C123.26935136 85.92724581 133.52157761 109.74204388 139 136 C139.18763916 136.81525146 139.37527832 137.63050293 139.56860352 138.47045898 C141.39747914 147.10822789 141.44396268 155.7734763 141.4375 164.5625 C141.43710724 165.78595123 141.43710724 165.78595123 141.43670654 167.03411865 C141.26463854 212.51446663 122.63801892 254.2248673 90.72265625 286.34765625 C73.50217599 303.15456594 52.60212248 315.87202291 30 324 C28.84757813 324.43957031 27.69515625 324.87914062 26.5078125 325.33203125 C-13.34251373 339.76360453 -59.41674778 336.53276914 -97.64306641 318.77197266 C-139.87034532 298.35946824 -171.02559921 263.88799118 -186.46875 219.58203125 C-196.4862786 189.95298067 -198.24782972 158.47527698 -191 128 C-190.83983398 127.29214355 -190.67966797 126.58428711 -190.51464844 125.85498047 C-180.56650775 82.27114117 -151.36524896 45.56330694 -114.13720703 21.81152344 C-103.33370163 15.13951155 -91.8975701 10.36095638 -80 6 C-78.90558594 5.58878906 -77.81117188 5.17757813 -76.68359375 4.75390625 C-52.40447434 -3.55466058 -25.13697397 -4.31231475 0 0 Z " fill="#FCFCFC" transform="translate(539,346)"/>
<path d="M0 0 C16.0675675 0.43487718 35.86751205 10.7866747 48.9375 19.5 C53.24954343 19.24717661 55.40014961 17.56332844 58.5625 14.75 C63.68364737 10.50893129 68.73063418 7.82757468 74.9375 5.5 C75.741875 5.1803125 76.54625 4.860625 77.375 4.53125 C91.03187553 -0.07794549 108.39060558 1.06085851 121.33984375 7.08203125 C126.05143514 9.51467518 130.51621791 11.90046413 134.4375 15.5 C136.70869033 17.7910577 136.70869033 17.7910577 139.25219727 17.28637695 C142.17250732 16.43117933 144.68755434 15.29284567 147.40234375 13.91796875 C148.44342285 13.39944336 149.48450195 12.88091797 150.55712891 12.34667969 C151.65202637 11.79915039 152.74692383 11.25162109 153.875 10.6875 C179.97286535 -2.09313686 179.97286535 -2.09313686 190.625 1.375 C196.86556848 7.10957644 197.87532575 17.13130308 199.125 25.125 C199.28935547 26.10984375 199.45371094 27.0946875 199.62304688 28.109375 C200.97646445 36.32851006 202.08893228 44.37460355 202.140625 52.70703125 C202.14759399 53.46592148 202.15456299 54.22481171 202.16174316 55.00669861 C202.17904133 57.4420228 202.18546282 59.87711693 202.1875 62.3125 C202.18850708 63.14358276 202.18951416 63.97466553 202.19055176 64.83093262 C202.18056883 76.9895516 201.66483954 88.61174196 198.9375 100.5 C198.60802939 102.07523999 198.27994639 103.65077073 197.953125 105.2265625 C197.6182256 106.77683297 197.27980572 108.32634802 196.9375 109.875 C196.7837793 110.57206055 196.63005859 111.26912109 196.47167969 111.98730469 C195.26675233 117.02904005 193.61449744 120.82300256 189.9375 124.5 C175.0490337 126.87112611 161.21501473 118.99515171 148.46826172 112.47753906 C147.42428223 111.95256836 146.38030273 111.42759766 145.3046875 110.88671875 C143.89872314 110.16295044 143.89872314 110.16295044 142.46435547 109.42456055 C139.68662862 108.40820774 138.63218113 108.39042542 135.9375 109.5 C134.42495419 110.53621923 132.94868496 111.62623089 131.5 112.75 C117.69582427 122.68003483 101.19341118 125.23796213 84.66015625 123.0703125 C76.43424936 121.28159181 69.30785918 117.4416225 61.9375 113.5 C60.60676908 112.82815371 59.2747432 112.15878893 57.9375 111.5 C54.55450591 114.19633789 54.55450591 114.19633789 51.9375 117.5 C51.8574136 118.88303946 51.81138003 120.2681897 51.78637695 121.65332031 C51.19121935 127.55107285 48.13416296 130.32095487 43.9453125 134.23828125 C43.24356903 134.92633347 42.54182556 135.61438568 41.81881714 136.32328796 C39.584903 138.50606543 37.3251133 140.65952345 35.0625 142.8125 C32.81337702 144.98918707 30.56984645 147.17149618 28.3276062 149.35527039 C26.93391748 150.70857722 25.5351237 152.05665164 24.13064575 153.39875793 C23.17483109 154.31572701 23.17483109 154.31572701 22.19970703 155.2512207 C21.64090851 155.78366898 21.08210999 156.31611725 20.50637817 156.86470032 C18.84478319 158.51897988 18.84478319 158.51897988 17.35861206 160.70304871 C16.88964508 161.29604263 16.4206781 161.88903656 15.9375 162.5 C15.2775 162.5 14.6175 162.5 13.9375 162.5 C13.67066406 163.09296875 13.40382813 163.6859375 13.12890625 164.296875 C11.15260946 167.95140414 8.51486329 170.40362454 4.9375 172.5 C0.33262411 173.55479208 -2.94560844 173.16538221 -7 170.75 C-9.84456465 167.64683856 -10.89159642 165.81026074 -11.4375 161.625 C-10.57870442 154.46837015 -4.39257475 149.57535548 0.51171875 144.765625 C1.23615677 144.04638855 1.96059479 143.3271521 2.70698547 142.58612061 C5.00825895 140.30257727 7.31614467 138.02587512 9.625 135.75 C11.94365639 133.45895524 14.26083415 131.16646268 16.57514954 128.87103271 C18.0125059 127.44594361 19.45252681 126.02353606 20.89543152 124.60406494 C21.54313004 123.96289734 22.19082855 123.32172974 22.8581543 122.66113281 C23.71608833 121.81557831 23.71608833 121.81557831 24.59135437 120.95294189 C26.04315219 119.52188573 26.04315219 119.52188573 26.9375 117.5 C26.348479 117.74234375 25.75945801 117.9846875 25.15258789 118.234375 C22.44135858 119.33915646 19.72103787 120.41961474 17 121.5 C16.07380859 121.8815625 15.14761719 122.263125 14.19335938 122.65625 C8.13260496 125.03802015 3.45166951 126.03646102 -3.0625 125.5 C-6.44370396 123.99724268 -7.62337618 122.463853 -9.14453125 119.125 C-15.32706675 102.08250513 -16.27492826 84.12800251 -16.25 66.1875 C-16.24939575 65.38797913 -16.2487915 64.58845825 -16.24816895 63.76470947 C-16.2153957 47.78695263 -15.45494246 32.24430553 -12.1875 16.5625 C-12.03829102 15.83401855 -11.88908203 15.10553711 -11.73535156 14.35498047 C-10.25729811 7.94857087 -7.35237536 0.30267068 0 0 Z " fill="#B3B4B6" transform="translate(419.0625,448.5)"/>
<path d="M0 0 C1.26073334 0.00031723 1.26073334 0.00031723 2.54693604 0.00064087 C16.26812656 0.03506212 29.40569129 0.94955733 42.75 4.375 C43.46623535 4.55691895 44.1824707 4.73883789 44.92041016 4.92626953 C49.62378726 6.16902726 54.18647816 7.69506362 58.75 9.375 C59.90314697 9.79241455 59.90314697 9.79241455 61.07958984 10.21826172 C84.46183082 18.7878878 104.74751232 31.10194861 122.75 48.375 C123.67941406 49.24125 124.60882812 50.1075 125.56640625 51 C148.49734724 72.77666102 164.71869875 101.91451092 172.75 132.375 C172.95882813 133.10364258 173.16765625 133.83228516 173.3828125 134.58300781 C180.57832981 160.30242808 179.18511821 192.67154101 172.75 218.375 C172.56808105 219.11314941 172.38616211 219.85129883 172.19873047 220.61181641 C160.97888637 264.27796569 130.1272049 303.33297938 91.61010742 326.14477539 C84.25264489 330.35082186 76.60172785 333.96688178 68.87011719 337.42626953 C67.10691044 338.21528628 65.35297448 339.02498086 63.6015625 339.83984375 C24.19011362 356.73817731 -25.06921516 353.98386986 -64.25 338.375 C-106.35849882 321.2379263 -141.03328199 287.66448609 -159.33984375 246.0234375 C-174.65428946 209.51354462 -179.01785004 167.80059388 -168.25 129.375 C-168.03601563 128.57868164 -167.82203125 127.78236328 -167.6015625 126.96191406 C-162.31713742 107.77325323 -153.06783756 89.34592378 -141.25 73.375 C-140.84378418 72.81087402 -140.43756836 72.24674805 -140.01904297 71.66552734 C-113.96926774 35.65885808 -74.92871188 11.43532663 -31.53222656 2.83300781 C-29.98251494 2.5220045 -28.4374428 2.18712355 -26.89746094 1.83105469 C-17.98223333 -0.07472437 -9.07458469 -0.02099724 0 0 Z M-124.8125 64.0625 C-147.02614545 89.7154166 -159.25954204 119.35332592 -165.25 152.375 C-165.45496094 153.48359375 -165.65992188 154.5921875 -165.87109375 155.734375 C-170.49969962 200.20716546 -157.78835258 245.61512013 -129.79833984 280.49511719 C-114.18547646 299.45113234 -96.00676676 314.03863614 -74.25 325.375 C-73.63543945 325.69597656 -73.02087891 326.01695312 -72.38769531 326.34765625 C-53.28505987 336.16072421 -30.77912437 342.69713084 -9.25 343.375 C-8.53811523 343.40609863 -7.82623047 343.43719727 -7.09277344 343.46923828 C14.23701233 344.31714627 35.6748802 341.80540148 55.75 334.375 C57.05651374 333.92741028 58.36382823 333.48215209 59.671875 333.0390625 C80.32736136 325.87698344 98.88711923 314.37732666 114.75 299.375 C116.09989846 298.22414139 117.45390621 297.07808069 118.8125 295.9375 C147.95006237 270.35472024 166.64950713 229.48377901 169.94180298 191.14123535 C170.25071106 185.88681858 170.28009716 180.63697591 170.25 175.375 C170.24890228 174.57672791 170.24780457 173.77845581 170.24667358 172.95599365 C170.19065031 158.66276691 168.59241951 145.18657423 164.75 131.375 C164.55245117 130.64780762 164.35490234 129.92061523 164.15136719 129.17138672 C152.5452611 87.7281668 122.91937495 50.62944682 85.66015625 29.41796875 C14.25085715 -9.81433602 -69.4368745 5.17573883 -124.8125 64.0625 Z " fill="#0B0B0B" transform="translate(510.25,336.625)"/>
<path d="M0 0 C7.72042691 7.31538066 12.35880835 15.49358833 14.75 25.8125 C14.93304687 26.46476562 15.11609375 27.11703125 15.3046875 27.7890625 C17.74608596 38.88243445 14.65635808 51.5991486 9.31640625 61.40234375 C3.96607516 69.63464869 -2.4494409 75.51299021 -11.25 79.8125 C-12.02214844 80.225 -12.79429687 80.6375 -13.58984375 81.0625 C-23.88430893 85.74623771 -38.76666829 85.8104072 -49.4375 82.1875 C-51.06780014 81.45115208 -52.67427105 80.65935599 -54.25 79.8125 C-55.11753906 79.36519531 -55.98507812 78.91789063 -56.87890625 78.45703125 C-68.52458197 71.98335458 -75.7026744 62.25781218 -80.25 49.8125 C-82.92702903 36.78554888 -82.32875995 22.75061467 -75.671875 11.03515625 C-67.00368525 -1.94760542 -55.95612818 -9.80659257 -40.5625 -12.9375 C-25.02326032 -14.11027281 -11.98593552 -10.10578877 0 0 Z " fill="#FBFBFB" transform="translate(548.25,475.1875)"/>
<path d="M0 0 C12.27227079 0.33215548 24.30054943 6.95959086 35.1875 12.0625 C36.17580811 12.52116455 37.16411621 12.9798291 38.18237305 13.45239258 C43.29466333 15.91360462 47.25587401 18.14970263 50.9375 22.5 C50.40125 23.11875 49.865 23.7375 49.3125 24.375 C38.6702771 38.37792487 34.21303749 53.68968582 36.3984375 71.19140625 C38.41634087 82.76467559 42.77791618 92.23465623 49.9375 101.5 C48.34777992 105.40204019 46.23892879 107.88636888 42.9375 110.5 C40.40169953 111.15347208 37.9413563 111.55503619 35.33984375 111.84765625 C32.80655703 112.3206757 32.80655703 112.3206757 31.08203125 114.3671875 C28.32156347 117.11257076 25.26877917 118.23803881 21.6875 119.5625 C20.67888916 119.94656006 20.67888916 119.94656006 19.64990234 120.33837891 C17.74695938 121.06205923 15.84228274 121.78117607 13.9375 122.5 C13.13054687 122.84675781 12.32359375 123.19351563 11.4921875 123.55078125 C6.62102906 125.63137726 2.1522008 126.32915741 -3.0625 125.5 C-6.44370396 123.99724268 -7.62337618 122.463853 -9.14453125 119.125 C-15.32706675 102.08250513 -16.27492826 84.12800251 -16.25 66.1875 C-16.24939575 65.38797913 -16.2487915 64.58845825 -16.24816895 63.76470947 C-16.2153957 47.78695263 -15.45494246 32.24430553 -12.1875 16.5625 C-12.03829102 15.83401855 -11.88908203 15.10553711 -11.73535156 14.35498047 C-10.25729811 7.94857087 -7.35237536 0.30267068 0 0 Z " fill="#010101" transform="translate(419.0625,448.5)"/>
<path d="M0 0 C6.24056848 5.73457644 7.25032575 15.75630308 8.5 23.75 C8.66435547 24.73484375 8.82871094 25.7196875 8.99804688 26.734375 C10.35146445 34.95351006 11.46393228 42.99960355 11.515625 51.33203125 C11.52259399 52.09092148 11.52956299 52.84981171 11.53674316 53.63169861 C11.55404133 56.0670228 11.56046282 58.50211693 11.5625 60.9375 C11.56350708 61.76858276 11.56451416 62.59966553 11.56555176 63.45593262 C11.55556883 75.6145516 11.03983954 87.23674196 8.3125 99.125 C7.98302939 100.70023999 7.65494639 102.27577073 7.328125 103.8515625 C6.9932256 105.40183297 6.65480572 106.95134802 6.3125 108.5 C6.1587793 109.19706055 6.00505859 109.89412109 5.84667969 110.61230469 C4.64175233 115.65404005 2.98949744 119.44800256 -0.6875 123.125 C-18.29724188 125.92951445 -35.66010437 114.65108789 -50.6875 107.125 C-50.6875 103.125 -50.6875 103.125 -49.40234375 101.51171875 C-48.52255859 100.67060547 -48.52255859 100.67060547 -47.625 99.8125 C-36.44622753 87.656721 -33.99112521 71.7185563 -34.37890625 55.81640625 C-35.0259271 42.45985554 -41.54691459 28.81956029 -50.6875 19.125 C-49.21095655 15.15346033 -47.26777678 14.05654435 -43.515625 12.25 C-41.93950439 11.48671387 -41.93950439 11.48671387 -40.33154297 10.70800781 C-39.21150879 10.18561523 -38.09147461 9.66322266 -36.9375 9.125 C-35.2361792 8.3220752 -35.2361792 8.3220752 -33.50048828 7.50292969 C-10.15570614 -3.30650898 -10.15570614 -3.30650898 0 0 Z " fill="#030202" transform="translate(609.6875,449.875)"/>
<path d="M0 0 C2.31 0 4.62 0 7 0 C7 5.28 7 10.56 7 16 C12.61 16 18.22 16 24 16 C24 18.31 24 20.62 24 23 C18.72 23 13.44 23 8 23 C8 28.28 8 33.56 8 39 C5.36 39 2.72 39 0 39 C0 33.72 0 28.44 0 23 C-5.61 23 -11.22 23 -17 23 C-17 20.69 -17 18.38 -17 16 C-11.39 16 -5.78 16 0 16 C0 10.72 0 5.44 0 0 Z " fill="#090909" transform="translate(511,493)"/>
<path d="M0 0 C10.06675535 -0.65652752 19.00212671 3.00486748 27 9 C35.49504353 16.7660468 40.44209626 25.4699893 41 37 C38.36 37 35.72 37 33 37 C32.85304688 36.29875 32.70609375 35.5975 32.5546875 34.875 C30.27843888 25.24672997 26.16817571 18.76577109 18 13 C12.06211641 9.67118647 6.76763397 8.42969105 0 8 C0 5.36 0 2.72 0 0 Z " fill="#0E0E0E" transform="translate(514,471)"/>
</svg>
